<svg xmlns="http://www.w3.org/2000/svg" viewBox="0 0 910.91 727.47"><defs><style>.cls-1{fill:#87beff;}.cls-2{fill:#2f2e41;}.cls-3{fill:#fff;}.cls-4{fill:#e6e6e6;}.cls-5{fill:#3f3d56;}</style></defs><g id="Layer_2" data-name="Layer 2"><g id="Layer_1-2" data-name="Layer 1"><path class="cls-1" d="M752,650.51a4,4,0,0,1,.22-.34,7.44,7.44,0,0,1,.76-1.35l25.17-35.2,20.73-29h35.35l-2.5,3.49-4.45,6.23-13.78,19.28L784,655l27.4,55c1.12,2.24-.79,5.46-4.25,7.18l-13.21,6.58a9.7,9.7,0,0,1-4.23,1.06c-1.86,0-3.4-.69-4.06-2l-34-68.4A4,4,0,0,1,752,650.51Z"/><path class="cls-2" d="M799.61,648.4,764,635.17a6.5,6.5,0,0,1-3.83-8.36l10.45-28.12a6.51,6.51,0,0,1,8.35-3.83l35.62,13.24a6.49,6.49,0,0,1,3.83,8.35L808,644.57a6.49,6.49,0,0,1-8.35,3.83Z"/><path class="cls-3" d="M769.32,632.77a1.94,1.94,0,0,1-.71-.13h0a2,2,0,0,1-1.16-2.58l13.08-34.61a2,2,0,1,1,3.74,1.42l-13.08,34.61A2,2,0,0,1,769.32,632.77Z"/><path class="cls-1" d="M826.79,719.65v-125a2.16,2.16,0,0,1,0-.35,7.42,7.42,0,0,1,4.76-6.63,7.22,7.22,0,0,1,2.71-.52h14.77a7.52,7.52,0,0,1,7.5,7.5v125a7.51,7.51,0,0,1-7.5,7.5H834.29A7.51,7.51,0,0,1,826.79,719.65Z"/><path class="cls-2" d="M818.79,641.63v-30a6.51,6.51,0,0,1,6.5-6.5h38a6.52,6.52,0,0,1,6.5,6.5v30a6.51,6.51,0,0,1-6.5,6.5h-38A6.5,6.5,0,0,1,818.79,641.63Z"/><path class="cls-3" d="M847.86,645a2,2,0,0,1-2-2V606a2,2,0,0,1,4,0v37A2,2,0,0,1,847.86,645Z"/><path class="cls-1" d="M779.53,499.56,670.19,443.19A7.52,7.52,0,0,1,667,433.08L673.72,420a7.51,7.51,0,0,1,10.1-3.22l109.35,56.37a7.12,7.12,0,0,1,1.51,1,7.47,7.47,0,0,1,1.71,9.06l-6.76,13.12a7.47,7.47,0,0,1-4.39,3.71,7.76,7.76,0,0,1-2.29.35A7.48,7.48,0,0,1,779.53,499.56Z"/><path class="cls-2" d="M781.65,502.8l-53.16-21a7.51,7.51,0,0,1-3.34-10.06l12.12-25a7.5,7.5,0,0,1,10.13-3.3l48,29.1a2.61,2.61,0,0,1,.51.36c1.22,1.1,1.83,3.74,2.32,5.87l.08.33c.13.57.25,1.06.36,1.4l0,.13a3.86,3.86,0,0,1,.12.42,7.5,7.5,0,0,1-.58,5.16l-6.62,13.19a7.58,7.58,0,0,1-6.73,4.14A7.24,7.24,0,0,1,781.65,502.8Z"/><circle class="cls-1" cx="820.86" cy="380.81" r="53.52"/><path class="cls-2" d="M824,409.65l0-2c-3.72-.11-7-.34-9.46-2.14A6.11,6.11,0,0,1,812.2,401a3.48,3.48,0,0,1,1.15-2.89c1.63-1.39,4.27-.94,6.19-.06l1.65.76L818,375.6l-2,.27,2.7,19.73c-2.61-.77-5-.44-6.68,1a5.44,5.44,0,0,0-1.86,4.49,8.12,8.12,0,0,0,3.2,6.07C816.56,409.44,820.68,409.55,824,409.65Z"/><rect class="cls-2" x="795.47" y="377.57" width="10.77" height="2"/><rect class="cls-2" x="829.47" y="377.57" width="10.77" height="2"/><path class="cls-2" d="M772.08,614.11c-3.54-.21-6.29-6-6.29-13.31V507.13a54.1,54.1,0,0,1,1.7-13.52h0c.41-1.59.9-3.17,1.45-4.7A53.91,53.91,0,0,1,786,465c.88-.71,1.8-1.41,2.73-2.06a53.6,53.6,0,0,1,14.81-7.33,9,9,0,0,1-.22-2,9.51,9.51,0,0,1,9.5-9.5h14a9.43,9.43,0,0,1,9.27,11.5,54,54,0,0,1,37.73,51.5V600.8c0,7.48-2.86,13.33-6.5,13.33h-95Z"/><path class="cls-1" d="M833.92,622.66a7.48,7.48,0,0,1-1-3.58l-2.11-123a7.49,7.49,0,0,1,2.11-5.34h0a7.51,7.51,0,0,1,5.26-2.29l14.76-.24a7.5,7.5,0,0,1,7.58,6.62,6,6,0,0,1,.05.74l2.11,123a7.53,7.53,0,0,1-7.38,7.63l-14.75.25A7.53,7.53,0,0,1,833.92,622.66Z"/><path class="cls-2" d="M827.72,538.2a7.59,7.59,0,0,1-1-3.21l.63-57a7.51,7.51,0,0,1,6.89-8.06L849,468.79a7.52,7.52,0,0,1,5,1.43c.15.11.3.25.45.35a13.76,13.76,0,0,0,1.15.86l.32.23c2.11,1.49,4.51,3.19,4.62,4.84l8.86,55.6a7.41,7.41,0,0,1-1.1,4.52,6.44,6.44,0,0,1-.68.94,6.21,6.21,0,0,1-.72.73,7.39,7.39,0,0,1-4.41,1.88L834.81,542a7.5,7.5,0,0,1-7.09-3.76Z"/><path class="cls-3" d="M775.86,601a2,2,0,0,1-2-2V502a2,2,0,1,1,4,0v97A2,2,0,0,1,775.86,601Z"/><path class="cls-2" d="M869.4,368.1l-93-34a4,4,0,0,1-2.38-5.13l.31-1.48c7.26-19.85,31.33-32.34,51.18-25.08l28.61,10.46c19.84,7.26,28.47,30.77,21.21,50.62l-.83,2.24A4,4,0,0,1,869.4,368.1Z"/><path class="cls-2" d="M874.41,370c-129.59,4.78-140.91-11.5-101.43-37.1l8.38-15.41,96,35Z"/><ellipse class="cls-2" cx="840.86" cy="307.97" rx="4.5" ry="8.5" transform="translate(303.87 1024.58) rotate(-73.27)"/><path class="cls-4" d="M283.59,0c-92.92,0-168.5,75.58-168.5,168.5a168.5,168.5,0,0,0,337,0C452.08,75.58,376.49,0,283.59,0ZM423,236.23a155.14,155.14,0,0,1-139.4,87.28c-65.69,0-122-41.07-144.49-98.88a153.78,153.78,0,0,1-10.53-56.13c0-85.48,69.54-155,155-155s155,69.54,155,155A153.9,153.9,0,0,1,423,236.23Z"/><path class="cls-1" d="M283.59,337.49a169.2,169.2,0,0,1-152.54-96.26,7.28,7.28,0,0,1,.55-7.24l.09-.13a7.18,7.18,0,0,1,12.38,1C169.63,288.41,224.39,323,283.59,323A155.13,155.13,0,0,0,417.2,246a7.16,7.16,0,0,1,6.26-3.59,7.06,7.06,0,0,1,6.17,3.59l.07.14a7.27,7.27,0,0,1,0,7.22A169.64,169.64,0,0,1,283.59,337.49Z"/><path class="cls-4" d="M148.06,427.86c-4.15,0-7.58,12.07-8.25,27.9H60c-.67-15.83-4.1-27.9-8.25-27.9-4.62,0-8.37,15-8.37,33.48s3.75,33.49,8.37,33.49c4.15,0,7.58-12.07,8.25-27.9h79.78c.67,15.83,4.1,27.9,8.25,27.9,4.62,0,8.37-15,8.37-33.49S152.68,427.86,148.06,427.86Z"/><path class="cls-4" d="M186.92,411.9a99.78,99.78,0,1,0,12.64,48.58A99.77,99.77,0,0,0,186.92,411.9ZM99.76,552.29a91.36,91.36,0,1,1,.92,0Z"/><path class="cls-1" d="M99.81,560.79a100.12,100.12,0,0,1-53.7-15.59,4.59,4.59,0,0,1-1.77-2.15l-.05-.13a4.41,4.41,0,0,1,1.35-5.07,4.36,4.36,0,0,1,5.17-.32A91.27,91.27,0,0,0,180,417a4.45,4.45,0,0,1,5.82-6.13l.13.06a4.43,4.43,0,0,1,2,1.89,100.27,100.27,0,0,1-88.12,148Z"/><path class="cls-4" d="M467.37,360.7a99.81,99.81,0,1,0-.15,199.61h.15c.64,0,1.28,0,1.92,0a99.8,99.8,0,0,0-1.92-199.58ZM487.71,550a91.82,91.82,0,1,1-20.4-181.35h.06A91.82,91.82,0,0,1,487.71,550Z"/><path class="cls-1" d="M467.37,560.8a100.3,100.3,0,0,1-21.24-198.33,4.6,4.6,0,0,1,1.81,0l.21,0a4.44,4.44,0,0,1,.1,8.7,91.33,91.33,0,0,0,19.13,180.63c.88,0,1.74,0,2.61,0A4.15,4.15,0,0,1,474.2,555a4,4,0,0,1-2.27,4.63h0l-1.77.79a4.13,4.13,0,0,1-1.58.35Z"/><path class="cls-4" d="M516.6,456.26a12.2,12.2,0,0,0-12.18,8.31h-9.83L487.42,443a4.05,4.05,0,0,0-3.84-2.78h-.08a4,4,0,0,0-3.79,2.93l-11.24,39.24L455.25,403a4.06,4.06,0,0,0-7.93-.33l-13.39,61.88h-15a4,4,0,0,0,0,8.09h18.19A4,4,0,0,0,441,469.6l9.45-46,13,77.8a4,4,0,0,0,3.77,3.36h.22a4.05,4.05,0,0,0,3.89-2.93l12.56-43.86,4,11.95a4.08,4.08,0,0,0,3.84,2.78H504.6a12.13,12.13,0,1,0,12-16.4Z"/><path class="cls-5" d="M909.91,727.47h-183a1,1,0,0,1,0-2h183a1,1,0,1,1,0,2Z"/><path class="cls-4" d="M314.78,128.69a34.2,34.2,0,0,0-25.11,5.53,1.84,1.84,0,0,1-1.5.5c-.5-2.51-1-5-1.51-7a38.9,38.9,0,0,0,7.53,1,34.14,34.14,0,0,0,7-1h0c10.54-4,15.06-17.08,15.06-18.58.5-2,0-4.52-2-5.53-1.5-1-13-8-23.6-3.51-6,2-10,7-12.05,11.55a50.32,50.32,0,0,0-10.05-10.55l-2-1.5a5,5,0,1,0-6,8l2,1.51a38.49,38.49,0,0,1,15.56,25.61.49.49,0,0,1-.5-.5c-7.53-5-16.57-6.53-25.11-5.53-21.59,3.52-36.66,25.62-33.14,49.22,1,17.58,13.56,43.19,28.62,54.74,5,3.51,10.05,5.52,15.07,5.52h3a21,21,0,0,0,9-4,13.55,13.55,0,0,1,16.07,0,24,24,0,0,0,9,4c6,1,12-1,18.08-5.52,15.07-11.05,27.62-37.16,29.63-54.74C350.94,154.31,335.88,132.21,314.78,128.69Z"/></g></g></svg>