<svg xmlns="http://www.w3.org/2000/svg" xmlns:xlink="http://www.w3.org/1999/xlink" viewBox="0 0 545.39 605.4"><defs><style>.cls-1{fill:url(#GradientFill_1);}.cls-2,.cls-3{fill:#fff;}.cls-2{fill-rule:evenodd;}</style><linearGradient id="GradientFill_1" x1="503" y1="33.2" x2="31.81" y2="584.58" gradientUnits="userSpaceOnUse"><stop offset="0" stop-color="#4cb062"/><stop offset="1" stop-color="#00afdb"/></linearGradient></defs><g id="Layer_2" data-name="Layer 2"><g id="Layer_1-2" data-name="Layer 1"><rect class="cls-1" width="545.39" height="605.4"/><polygon class="cls-2" points="180.71 433.5 180.71 403.64 205.04 403.64 205.04 433.5 220.2 433.5 220.2 360.27 205.03 360.27 205.04 389.38 180.71 389.38 180.71 360.27 165.5 360.27 165.5 433.5 180.71 433.5"/><path class="cls-2" d="M282.21,411.85c1.27-9.31.62-14.94-3.65-21.57A24.63,24.63,0,0,0,263,380c-26.35-5.38-42.8,17.4-34.71,38,8.47,21.58,41.09,19.73,51.14,8.4l-8.37-9a32.36,32.36,0,0,1-7.8,4c-9.26,2.89-21.24-.79-22.21-9.55Zm-40.93-10.14c3.37-13.45,26-13,27.61,0Z"/><path class="cls-2" d="M307.7,393.53h11.21c.42,14.31-1.76,30.67,6.51,36.46,5.34,4.93,20.13,6.28,29.31,1.92V417c-4.39,2.92-6.42,4.41-12.14,4.31-4.2-.08-6.78-1.4-8.14-4.13-1.62-3.25-1.36-19-1-23.66h21.27V380.68H333.45V363.2H319.05v17.48H307.66Z"/><polygon class="cls-2" points="288.51 433.5 302.6 433.52 302.6 355.25 288.51 355.25 288.51 433.5"/><rect class="cls-3" x="364.06" y="380.68" width="14.09" height="52.82"/><path class="cls-2" d="M318.66,192.16a22.14,22.14,0,0,0-37.79,15.48c0,10,.08,19.94.11,30-.12,5.72-7.08,5.17-11.39,6-12.47.31-20.61,9.21-20.61,24.57v25.62a7.17,7.17,0,0,1-7.15,7.15h0a7.17,7.17,0,0,1-7.14-7.15V207.64a7.16,7.16,0,0,1,7.14-7.14h0a7.17,7.17,0,0,1,7.15,7.14v14.75h0v1a7.35,7.35,0,0,0,7.49,7.15h0a7.36,7.36,0,0,0,7.5-7.15v-15.7a22.15,22.15,0,0,0-44.29,0v86.12a22.15,22.15,0,0,0,44.29,0V268.42c0-10.31,4.58-11,13.61-11.11,10.87-.48,18.28-6.92,18.28-19.86V207.64A7.16,7.16,0,0,1,303,200.5h0a7.16,7.16,0,0,1,7.14,7.14v86.12a7.17,7.17,0,0,1-7.14,7.15h0a7.17,7.17,0,0,1-7.14-7.15V279h0v-1a7.34,7.34,0,0,0-7.49-7.14h0a7.34,7.34,0,0,0-7.5,7.14v15.7a22.14,22.14,0,0,0,44.28,0V207.64A21.86,21.86,0,0,0,318.66,192.16Z"/><circle class="cls-3" cx="371.13" cy="365.48" r="8.76" transform="translate(-108.56 568.5) rotate(-67.5)"/></g></g></svg>