<svg xmlns="http://www.w3.org/2000/svg" xmlns:xlink="http://www.w3.org/1999/xlink" viewBox="0 0 705.19 692.17"><defs><style>.cls-1,.cls-5,.cls-6{fill:#1bed80;}.cls-1,.cls-2,.cls-3,.cls-4,.cls-5,.cls-6,.cls-7{stroke-miterlimit:10;stroke-width:5px;}.cls-1{stroke:url(#GradientFill_1);}.cls-2,.cls-3,.cls-4,.cls-7{fill:#02195b;}.cls-2{stroke:url(#GradientFill_1-2);}.cls-3{stroke:url(#GradientFill_1-3);}.cls-4{stroke:url(#GradientFill_1-4);}.cls-5{stroke:url(#GradientFill_1-5);}.cls-6{stroke:url(#GradientFill_1-6);}.cls-7{stroke:url(#GradientFill_1-7);}.cls-8{fill:#fff;fill-rule:evenodd;}</style><linearGradient id="GradientFill_1" x1="381.9" y1="116.7" x2="548.39" y2="116.7" gradientUnits="userSpaceOnUse"><stop offset="0" stop-color="#4cb062"/><stop offset="1" stop-color="#00afdb"/></linearGradient><linearGradient id="GradientFill_1-2" x1="139.42" y1="524.43" x2="305.91" y2="524.43" xlink:href="#GradientFill_1"/><linearGradient id="GradientFill_1-3" x1="0" y1="534.39" x2="95.44" y2="534.39" xlink:href="#GradientFill_1"/><linearGradient id="GradientFill_1-4" x1="56.59" y1="671.92" x2="97.09" y2="671.92" xlink:href="#GradientFill_1"/><linearGradient id="GradientFill_1-5" x1="610.79" y1="149" x2="690.9" y2="149" xlink:href="#GradientFill_1"/><linearGradient id="GradientFill_1-6" x1="666.88" y1="19.16" x2="705.19" y2="19.16" xlink:href="#GradientFill_1"/><linearGradient id="GradientFill_1-7" x1="79.1" y1="303.53" x2="482.12" y2="303.53" xlink:href="#GradientFill_1"/></defs><g id="Layer_2" data-name="Layer 2"><g id="Layer_1-2" data-name="Layer 1"><circle class="cls-1" cx="465.14" cy="116.7" r="80.74"/><circle class="cls-2" cx="222.67" cy="524.43" r="80.74"/><circle class="cls-3" cx="47.72" cy="534.39" r="45.22"/><circle class="cls-4" cx="76.84" cy="671.92" r="17.75"/><circle class="cls-5" cx="650.85" cy="149" r="37.56"/><circle class="cls-6" cx="686.04" cy="19.16" r="16.66"/><circle class="cls-7" cx="280.61" cy="303.53" r="199.01"/></g><g id="Layer_2-2" data-name="Layer 2"><path class="cls-8" d="M153.59,305.35a3.35,3.35,0,0,1-5.59-2c-1.72-13.55-.24-45.55-.24-45.55a22.18,22.18,0,0,1,22.14-22,22.18,22.18,0,0,1,22.14,22v15.7a7.34,7.34,0,0,1-7.49,7.14h0a7.34,7.34,0,0,1-7.5-7.14v-1h0V257.77a7.16,7.16,0,0,0-7.14-7.14h0a7.16,7.16,0,0,0-7.14,7.14V288.6a18.53,18.53,0,0,1-4.1,11.62h0a30.3,30.3,0,0,1-3.24,3.46Z"/><path class="cls-8" d="M161.82,307a2.39,2.39,0,0,0,3.4,1.63c10.59-5.19,22.12-1.06,30.43-1.18,10.87-.47,18.29-6.92,18.29-19.86v-29.8a7.16,7.16,0,0,1,7.14-7.14h0a7.16,7.16,0,0,1,7.14,7.14v86.12a7.16,7.16,0,0,1-7.14,7.14h0a7.16,7.16,0,0,1-7.14-7.14V329.14h0v-.95a7.34,7.34,0,0,0-7.49-7.14h0a7.34,7.34,0,0,0-7.49,7.14v15.7a22.14,22.14,0,0,0,44.28,0V257.77a22.14,22.14,0,0,0-44.28,0c0,10,.08,19.93.1,30-.12,5.72-7.08,5.17-11.38,6-10.42.27-15.15.36-20.84,2.1a7,7,0,0,0-4.62,4.47h0a12.69,12.69,0,0,0-.38,6.72Z"/><path class="cls-8" d="M271.47,345.71c0,3.93,3.91,7.14,8.69,7.14h0c4.78,0,8.69-3.21,8.69-7.14V259.59c0-3.93-3.91-7.14-8.69-7.14h0c-4.78,0-8.69,3.21-8.69,7.14V272c0,12.5,0,1.68,0,23.07a3.34,3.34,0,0,1-2.71,3l-.14,0c-7.61,2-15.38-2.68-15.38-9.25,0-13.39,0-12.37.13-16.75,0-10-.1-2.57-.13-12.59,0-6,3-11.48,7.9-15.49a31.14,31.14,0,0,1,38.08,0c4.87,4,7.9,9.49,7.9,15.49v86.12c0,6-3,11.48-7.9,15.49a30.09,30.09,0,0,1-19,6.5c-.31,0-.63,0-1,0a26.31,26.31,0,0,1-24.94-24.12c-1.05-12.39-1.05-24.18-1.05-28.47v-6.44h0c0-2,2.32-3.56,4.74-3.09l6,1.15c4.41.85,7.52,4.08,7.53,7.8Z"/><path class="cls-8" d="M324.43,310.76a3.35,3.35,0,0,1-5.59-2c-1.71-13.55-.24-45.55-.24-45.55a21.88,21.88,0,0,1,6.49-15.49,22.14,22.14,0,0,1,37.79,15.49v15.7a7.34,7.34,0,0,1-7.49,7.14h0a7.34,7.34,0,0,1-7.49-7.14v-1h0V263.18a7.17,7.17,0,0,0-7.14-7.15h0a7.17,7.17,0,0,0-7.14,7.15V294a18.6,18.6,0,0,1-4.09,11.62h0a32.22,32.22,0,0,1-3.25,3.46Z"/><path class="cls-8" d="M332.67,312.39a2.38,2.38,0,0,0,3.39,1.63c10.59-5.19,22.12-1.06,30.43-1.18,10.87-.48,18.29-6.92,18.29-19.86v-29.8a7.17,7.17,0,0,1,7.14-7.15h0a7.17,7.17,0,0,1,7.14,7.15V349.3a7.16,7.16,0,0,1-7.14,7.14h0a7.16,7.16,0,0,1-7.14-7.14V334.55h0v-.95a7.35,7.35,0,0,0-7.49-7.15h0a7.35,7.35,0,0,0-7.49,7.15v15.7a22.19,22.19,0,0,0,22.14,22,22.19,22.19,0,0,0,22.14-22V263.18a22.14,22.14,0,0,0-44.28,0c0,10,.08,19.93.11,29.95-.13,5.72-7.09,5.16-11.39,6-10.42.27-15.14.36-20.84,2.1a7,7,0,0,0-4.62,4.46h0a12.62,12.62,0,0,0-.37,6.73Z"/></g></g></svg>