<?xml version="1.0" encoding="utf-8"?>
<!-- Generator: Adobe Illustrator 25.2.1, SVG Export Plug-In . SVG Version: 6.00 Build 0)  -->
<svg version="1.1" id="Layer_1" xmlns="http://www.w3.org/2000/svg" xmlns:xlink="http://www.w3.org/1999/xlink" x="0px" y="0px"
	 viewBox="0 0 96 96" style="enable-background:new 0 0 96 96;" xml:space="preserve">
<style type="text/css">
	.st0{fill:#02195B;}
</style>
<path class="st0" d="M48,0C21.5,0,0,21.5,0,48s21.5,48,48,48c3.3,0,6-2.7,6-6s-2.7-6-6-6c-19.9,0-36-16.1-36-36s16.1-36,36-36
	s36,16.1,36,36v18c0,3.3-2.7,6-6,6s-6-2.7-6-6V48c0-13.3-10.7-24-24-24S24,34.7,24,48s10.7,24,24,24c4.3,0,8.6-1.2,12.3-3.5
	c1.4,9.8,10.4,16.7,20.3,15.3C89.4,82.6,96,75,96,66V48C96,21.5,74.5,0,48,0z M48,60c-6.6,0-12-5.4-12-12s5.4-12,12-12s12,5.4,12,12
	C60,54.6,54.6,60,48,60z"/>
</svg>
