<svg width="42" height="42" viewBox="0 0 42 42" fill="none" xmlns="http://www.w3.org/2000/svg">
<path d="M40.8102 30.9074H39.8265C38.6334 30.9074 38.6794 29.7701 38.6794 29.7701C38.6794 29.7701 38.6715 29.7727 38.6695 29.7727C38.0054 23.0947 33.6551 17.5153 27.678 15.0852C27.6609 15.0767 27.6491 15.0681 27.6321 15.0603C26.6628 14.6363 26.6398 13.6867 26.6398 13.6867V11.1379C26.6398 9.49593 25.3096 8.16309 23.6657 8.16309H18.335C16.6924 8.16309 15.3602 9.49593 15.3602 11.1379V14.0654C15.3333 14.3108 15.1882 14.7184 14.5543 14.9868C14.5136 15.0045 14.4828 15.0216 14.45 15.0366C8.42231 17.4339 4.02018 23.0219 3.3344 29.7262L3.32653 29.7235C3.32653 29.7235 3.22809 30.9074 2.09671 30.9074H1.3604C1.12678 30.9126 0.194901 30.9947 0.194901 31.9554V32.7239C0.208682 33.0533 0.351744 33.8376 1.43062 33.8376H40.5228C41.5918 33.8376 41.7775 33.1459 41.8051 32.7994V32.0171C41.8051 31.0931 41.1449 30.9304 40.8102 30.9074ZM24.4919 12.8966C24.486 13.1342 24.3954 14.0116 23.2949 13.9092C23.2345 13.9033 23.1945 13.9053 23.1538 13.9072C22.4464 13.82 21.7324 13.7616 21 13.7616C20.1672 13.7616 19.3528 13.8423 18.5496 13.9558C18.4938 13.9532 18.4295 13.9558 18.3501 13.9656C17.4766 14.0693 17.3237 13.522 17.3027 13.2411V11.886C17.3027 10.8386 18.1506 9.98943 19.1986 9.98943H22.5966C23.644 9.98943 24.4926 10.8386 24.4926 11.886V12.8966H24.4919ZM32.6261 30.893H31.124C30.3555 30.893 30.1599 30.4802 30.1153 30.1914C30.1153 30.1225 30.112 30.028 30.1081 29.9165C30.0569 28.4084 29.671 23.2332 26.8098 19.1395L26.8236 19.1389L26.4928 18.5784C26.4574 18.3724 26.4698 18.0725 26.9751 18.4931C29.4551 20.6299 33.1209 24.6993 33.3316 30.2544C33.3178 30.4953 33.2108 30.893 32.6261 30.893Z" fill="white"/>
</svg>
