<svg width="72" height="72" viewBox="0 0 72 72" fill="none" xmlns="http://www.w3.org/2000/svg">
<path d="M0 36C0 16.1178 16.1178 0 36 0C55.8823 0 72 16.1178 72 36C72 55.8823 55.8823 72 36 72C16.1178 72 0 55.8823 0 36Z" fill="#02195B"/>
<path d="M55.8102 45.9074H54.8265C53.6334 45.9074 53.6794 44.7701 53.6794 44.7701C53.6794 44.7701 53.6715 44.7727 53.6695 44.7727C53.0054 38.0947 48.6551 32.5153 42.678 30.0852C42.6609 30.0767 42.6491 30.0681 42.6321 30.0603C41.6628 29.6363 41.6398 28.6867 41.6398 28.6867V26.1379C41.6398 24.4959 40.3096 23.1631 38.6657 23.1631H33.335C31.6924 23.1631 30.3602 24.4959 30.3602 26.1379V29.0654C30.3333 29.3108 30.1882 29.7184 29.5543 29.9868C29.5136 30.0045 29.4828 30.0216 29.45 30.0366C23.4223 32.4339 19.0202 38.0219 18.3344 44.7262L18.3265 44.7235C18.3265 44.7235 18.2281 45.9074 17.0967 45.9074H16.3604C16.1268 45.9126 15.1949 45.9947 15.1949 46.9554V47.7239C15.2087 48.0533 15.3517 48.8376 16.4306 48.8376H55.5228C56.5918 48.8376 56.7775 48.1459 56.8051 47.7994V47.0171C56.8051 46.0931 56.1449 45.9304 55.8102 45.9074ZM39.4919 27.8966C39.486 28.1342 39.3954 29.0116 38.2949 28.9092C38.2345 28.9033 38.1945 28.9053 38.1538 28.9072C37.4464 28.82 36.7324 28.7616 36 28.7616C35.1672 28.7616 34.3528 28.8423 33.5496 28.9558C33.4938 28.9532 33.4295 28.9558 33.3501 28.9656C32.4766 29.0693 32.3237 28.522 32.3027 28.2411V26.886C32.3027 25.8386 33.1506 24.9894 34.1986 24.9894H37.5966C38.644 24.9894 39.4926 25.8386 39.4926 26.886V27.8966H39.4919ZM47.6261 45.893H46.124C45.3555 45.893 45.1599 45.4802 45.1153 45.1914C45.1153 45.1225 45.112 45.028 45.1081 44.9165C45.0569 43.4084 44.671 38.2332 41.8098 34.1395L41.8236 34.1389L41.4928 33.5784C41.4574 33.3724 41.4698 33.0725 41.9751 33.4931C44.4551 35.6299 48.1209 39.6993 48.3316 45.2544C48.3178 45.4953 48.2108 45.893 47.6261 45.893Z" fill="white"/>
</svg>
